<svg xmlns="http://www.w3.org/2000/svg" viewBox="0 0 231.8 64" width="231.8" height="64" role="img" aria-label="PANTAS — Pemantauan Anomali Penyaluran BBM Subsidi">
  <title>PANTAS — Pemantauan Anomali Penyaluran BBM Subsidi</title>
  <defs>
    <linearGradient id="pantasShieldI" x1="8" y1="5" x2="56" y2="60" gradientUnits="userSpaceOnUse">
      <stop offset="0" stop-color="#4AA8E8"/>
      <stop offset="0.55" stop-color="#1E88D2"/>
      <stop offset="1" stop-color="#2ECC71"/>
    </linearGradient>
  </defs>
  <g>
    <path fill="url(#pantasShieldI)" d="M32 5 L54 12.5 C55.2 12.9 56 14 56 15.3 V31 C56 44.5 46.4 54.6 33.3 59.6 C32.5 59.9 31.5 59.9 30.7 59.6 C17.6 54.6 8 44.5 8 31 V15.3 C8 14 8.8 12.9 10 12.5 Z"/>
    <g fill="none" stroke-width="3.2" stroke-linecap="round" stroke-linejoin="round">
      <path stroke="#0A1A2B" d="M15 41 H21.5 L24 37 L26.5 41 H28"/>
      <path stroke="#B3001B" d="M28 41 L32 24.5 L36 41"/>
      <path stroke="#0A1A2B" d="M36 41 H49"/>
    </g>
    <circle cx="32" cy="24.5" r="4.6" fill="#B3001B" opacity="0.3"/>
    <circle cx="32" cy="24.5" r="2.6" fill="#B3001B"/>
  </g>
  <path fill="#FFFFFF" d="M76.24 37.66V12.33H85.97Q88.59 12.33 90.61 13.25Q92.63 14.17 93.79 15.97Q94.94 17.77 94.94 20.43Q94.94 23.01 93.77 24.81Q92.6 26.61 90.58 27.55Q88.55 28.48 85.97 28.48H81.51V37.66ZM81.51 23.89H86Q87.12 23.89 87.94 23.45Q88.76 23.01 89.22 22.23Q89.67 21.45 89.67 20.43Q89.67 19.37 89.22 18.59Q88.76 17.81 87.94 17.37Q87.12 16.92 86 16.92H81.51Z M98.44 37.66 107.01 12.33H114.01L122.58 37.66H116.83L115.13 32.5H105.85L104.15 37.66ZM107.31 27.91H113.67L109.8 15.94H111.22Z M127.2 37.66V12.33H131.24L144.84 30.25L142.67 30.76V12.33H147.94V37.66H143.86L130.5 19.61L132.47 19.1V37.66Z M158.98 37.66V16.92H152.56V12.33H170.58V16.92H164.25V37.66Z M173.32 37.66 181.89 12.33H188.9L197.46 37.66H191.72L190.02 32.5H180.74L179.04 37.66ZM182.2 27.91H188.56L184.68 15.94H186.11Z M211.3 38.07Q208.92 38.07 206.83 37.21Q204.73 36.34 203.22 34.74Q201.71 33.14 200.96 30.97L205.28 29.03Q206.23 31.1 207.91 32.29Q209.6 33.48 211.64 33.48Q212.72 33.48 213.51 33.14Q214.29 32.8 214.73 32.21Q215.17 31.61 215.17 30.8Q215.17 29.91 214.63 29.28Q214.08 28.66 212.93 28.28L207.96 26.65Q204.94 25.66 203.41 23.84Q201.88 22.02 201.88 19.47Q201.88 17.23 202.98 15.53Q204.09 13.83 206.08 12.88Q208.07 11.93 210.65 11.93Q212.93 11.93 214.87 12.71Q216.8 13.49 218.22 14.92Q219.63 16.35 220.34 18.35L216.06 20.29Q215.34 18.52 213.91 17.52Q212.49 16.52 210.65 16.52Q209.6 16.52 208.78 16.86Q207.96 17.2 207.52 17.83Q207.08 18.45 207.08 19.27Q207.08 20.15 207.66 20.82Q208.24 21.48 209.39 21.85L214.25 23.42Q217.31 24.4 218.83 26.17Q220.34 27.94 220.34 30.49Q220.34 32.7 219.18 34.42Q218.03 36.13 216.01 37.1Q213.98 38.07 211.3 38.07Z"/>
  <path fill="#9FB6C9" d="M74.08 52.66 76.09 46.97H77.21L79.21 52.66H78.25L77.81 51.39H75.49L75.05 52.66ZM75.75 50.58H77.53L76.52 47.6H76.78Z M80.2 52.66V46.97H80.93L84.13 51.38L83.78 51.43V46.97H84.68V52.66H83.95L80.78 48.22L81.1 48.16V52.66Z M88.94 52.76Q88.32 52.76 87.79 52.53Q87.26 52.31 86.86 51.92Q86.46 51.52 86.23 50.98Q86.01 50.45 86.01 49.81Q86.01 49.18 86.23 48.64Q86.46 48.1 86.86 47.7Q87.25 47.31 87.79 47.09Q88.32 46.87 88.94 46.87Q89.57 46.87 90.1 47.09Q90.64 47.31 91.04 47.71Q91.44 48.11 91.66 48.64Q91.88 49.18 91.88 49.81Q91.88 50.45 91.66 50.98Q91.43 51.52 91.03 51.92Q90.64 52.31 90.1 52.53Q89.56 52.76 88.94 52.76ZM88.94 51.93Q89.39 51.93 89.76 51.77Q90.13 51.61 90.41 51.32Q90.68 51.04 90.83 50.65Q90.99 50.26 90.99 49.81Q90.99 49.36 90.83 48.98Q90.68 48.6 90.41 48.3Q90.13 48.01 89.76 47.85Q89.39 47.69 88.94 47.69Q88.5 47.69 88.13 47.85Q87.76 48.01 87.48 48.3Q87.21 48.6 87.06 48.98Q86.91 49.36 86.91 49.81Q86.91 50.26 87.06 50.65Q87.21 51.04 87.48 51.32Q87.76 51.61 88.13 51.77Q88.51 51.93 88.94 51.93Z M93.21 52.66V46.97H94.05L96.19 49.93H95.77L97.88 46.97H98.72V52.66H97.82V48.03L98.16 48.12L96.01 51.06H95.92L93.82 48.12L94.11 48.03V52.66Z M99.71 52.66 101.72 46.97H102.83L104.84 52.66H103.87L103.44 51.39H101.12L100.68 52.66ZM101.38 50.58H103.16L102.15 47.6H102.4Z M105.83 52.66V46.97H106.73V51.86H109.2V52.66Z M110.27 52.66V46.97H111.18V52.66Z M114.33 52.66V46.97H116.4Q116.98 46.97 117.42 47.18Q117.86 47.39 118.1 47.79Q118.35 48.19 118.35 48.75Q118.35 49.3 118.1 49.7Q117.85 50.09 117.41 50.31Q116.98 50.52 116.4 50.52H115.23V52.66ZM115.23 49.72H116.43Q116.73 49.72 116.96 49.6Q117.19 49.47 117.32 49.26Q117.45 49.04 117.45 48.74Q117.45 48.44 117.32 48.22Q117.19 48.01 116.96 47.89Q116.73 47.77 116.43 47.77H115.23Z M119.59 52.66V46.97H123.35V47.77H120.5V49.41H123.2V50.21H120.5V51.86H123.35V52.66Z M124.51 52.66V46.97H125.24L128.43 51.38L128.09 51.43V46.97H128.98V52.66H128.26L125.08 48.22L125.41 48.16V52.66Z M131.93 52.66V50.09L129.98 46.97H131L132.56 49.5H132.2L133.75 46.97H134.77L132.82 50.09V52.66Z M135.25 52.66 137.26 46.97H138.38L140.38 52.66H139.42L138.98 51.39H136.66L136.22 52.66ZM136.92 50.58H138.7L137.69 47.6H137.95Z M141.37 52.66V46.97H142.28V51.86H144.74V52.66Z M147.95 52.76Q147.31 52.76 146.82 52.49Q146.33 52.22 146.05 51.75Q145.77 51.29 145.77 50.69V46.97H146.67V50.65Q146.67 51.03 146.84 51.32Q147 51.61 147.29 51.77Q147.57 51.93 147.95 51.93Q148.33 51.93 148.62 51.77Q148.91 51.61 149.07 51.32Q149.23 51.03 149.23 50.65V46.97H150.13V50.69Q150.13 51.29 149.85 51.75Q149.58 52.22 149.09 52.49Q148.59 52.76 147.95 52.76Z M151.58 52.66V46.97H153.65Q154.23 46.97 154.66 47.18Q155.1 47.39 155.35 47.79Q155.6 48.19 155.6 48.75Q155.6 49.34 155.3 49.76Q155.01 50.18 154.51 50.37L155.83 52.66H154.8L153.4 50.18L153.99 50.52H152.48V52.66ZM152.48 49.72H153.67Q153.98 49.72 154.21 49.6Q154.44 49.47 154.57 49.26Q154.69 49.04 154.69 48.74Q154.69 48.44 154.57 48.22Q154.44 48.01 154.21 47.89Q153.98 47.77 153.67 47.77H152.48Z M156.4 52.66 158.4 46.97H159.52L161.52 52.66H160.56L160.12 51.39H157.81L157.36 52.66ZM158.07 50.58H159.85L158.84 47.6H159.09Z M162.52 52.66V46.97H163.24L166.44 51.38L166.1 51.43V46.97H166.99V52.66H166.27L163.09 48.22L163.42 48.16V52.66Z M170.15 52.66V46.97H172.55Q173.09 46.97 173.48 47.15Q173.87 47.34 174.07 47.69Q174.28 48.04 174.28 48.51Q174.28 48.92 174.07 49.26Q173.86 49.6 173.41 49.8V49.42Q173.8 49.57 174.05 49.81Q174.29 50.04 174.41 50.33Q174.52 50.62 174.52 50.94Q174.52 51.75 173.99 52.21Q173.47 52.66 172.56 52.66ZM171.05 51.86H172.63Q173.08 51.86 173.35 51.61Q173.61 51.36 173.61 50.95Q173.61 50.53 173.35 50.28Q173.08 50.03 172.63 50.03H171.05ZM171.05 49.24H172.57Q172.94 49.24 173.16 49.03Q173.38 48.82 173.38 48.47Q173.38 48.13 173.16 47.94Q172.94 47.75 172.57 47.75H171.05Z M175.76 52.66V46.97H178.16Q178.7 46.97 179.09 47.15Q179.48 47.34 179.69 47.69Q179.89 48.04 179.89 48.51Q179.89 48.92 179.68 49.26Q179.47 49.6 179.03 49.8V49.42Q179.42 49.57 179.66 49.81Q179.91 50.04 180.02 50.33Q180.13 50.62 180.13 50.94Q180.13 51.75 179.61 52.21Q179.08 52.66 178.17 52.66ZM176.66 51.86H178.24Q178.69 51.86 178.96 51.61Q179.23 51.36 179.23 50.95Q179.23 50.53 178.96 50.28Q178.69 50.03 178.24 50.03H176.66ZM176.66 49.24H178.19Q178.55 49.24 178.78 49.03Q179 48.82 179 48.47Q179 48.13 178.78 47.94Q178.55 47.75 178.19 47.75H176.66Z M181.37 52.66V46.97H182.22L184.36 49.93H183.94L186.04 46.97H186.88V52.66H185.99V48.03L186.32 48.12L184.17 51.06H184.08L181.98 48.12L182.28 48.03V52.66Z M192.04 52.76Q191.5 52.76 191.04 52.55Q190.58 52.35 190.26 52Q189.94 51.65 189.79 51.19L190.55 50.87Q190.76 51.4 191.16 51.68Q191.55 51.96 192.07 51.96Q192.38 51.96 192.61 51.87Q192.84 51.77 192.96 51.59Q193.09 51.42 193.09 51.19Q193.09 50.87 192.91 50.69Q192.74 50.51 192.39 50.4L191.32 50.06Q190.68 49.87 190.34 49.46Q190.01 49.05 190.01 48.5Q190.01 48.01 190.24 47.65Q190.48 47.29 190.9 47.08Q191.32 46.87 191.85 46.87Q192.36 46.87 192.78 47.05Q193.21 47.23 193.51 47.55Q193.81 47.86 193.95 48.27L193.2 48.6Q193.03 48.15 192.67 47.91Q192.32 47.66 191.85 47.66Q191.57 47.66 191.35 47.76Q191.14 47.85 191.02 48.03Q190.9 48.21 190.9 48.45Q190.9 48.73 191.08 48.94Q191.25 49.15 191.61 49.26L192.61 49.57Q193.29 49.78 193.63 50.17Q193.98 50.55 193.98 51.13Q193.98 51.6 193.73 51.97Q193.48 52.34 193.04 52.55Q192.61 52.76 192.04 52.76Z M197.44 52.76Q196.81 52.76 196.31 52.49Q195.82 52.22 195.54 51.75Q195.26 51.29 195.26 50.69V46.97H196.16V50.65Q196.16 51.03 196.33 51.32Q196.49 51.61 196.78 51.77Q197.07 51.93 197.44 51.93Q197.82 51.93 198.11 51.77Q198.4 51.61 198.56 51.32Q198.73 51.03 198.73 50.65V46.97H199.62V50.69Q199.62 51.29 199.35 51.75Q199.07 52.22 198.58 52.49Q198.08 52.76 197.44 52.76Z M201.07 52.66V46.97H203.48Q204.01 46.97 204.4 47.15Q204.79 47.34 205 47.69Q205.2 48.04 205.2 48.51Q205.2 48.92 204.99 49.26Q204.78 49.6 204.34 49.8V49.42Q204.73 49.57 204.98 49.81Q205.22 50.04 205.33 50.33Q205.44 50.62 205.44 50.94Q205.44 51.75 204.92 52.21Q204.39 52.66 203.48 52.66ZM201.98 51.86H203.55Q204 51.86 204.27 51.61Q204.54 51.36 204.54 50.95Q204.54 50.53 204.27 50.28Q204 50.03 203.55 50.03H201.98ZM201.98 49.24H203.5Q203.87 49.24 204.09 49.03Q204.31 48.82 204.31 48.47Q204.31 48.13 204.09 47.94Q203.87 47.75 203.5 47.75H201.98Z M208.68 52.76Q208.15 52.76 207.69 52.55Q207.23 52.35 206.91 52Q206.59 51.65 206.43 51.19L207.2 50.87Q207.41 51.4 207.8 51.68Q208.2 51.96 208.72 51.96Q209.03 51.96 209.26 51.87Q209.49 51.77 209.61 51.59Q209.74 51.42 209.74 51.19Q209.74 50.87 209.56 50.69Q209.39 50.51 209.04 50.4L207.97 50.06Q207.33 49.87 206.99 49.46Q206.66 49.05 206.66 48.5Q206.66 48.01 206.89 47.65Q207.13 47.29 207.55 47.08Q207.96 46.87 208.5 46.87Q209.01 46.87 209.43 47.05Q209.85 47.23 210.16 47.55Q210.46 47.86 210.6 48.27L209.85 48.6Q209.68 48.15 209.32 47.91Q208.97 47.66 208.5 47.66Q208.22 47.66 208 47.76Q207.79 47.85 207.67 48.03Q207.55 48.21 207.55 48.45Q207.55 48.73 207.73 48.94Q207.9 49.15 208.26 49.26L209.26 49.57Q209.94 49.78 210.28 50.17Q210.63 50.55 210.63 51.13Q210.63 51.6 210.38 51.97Q210.13 52.34 209.69 52.55Q209.26 52.76 208.68 52.76Z M211.96 52.66V46.97H212.86V52.66Z M214.36 52.66V46.97H216.22Q217.11 46.97 217.76 47.32Q218.42 47.68 218.78 48.32Q219.14 48.96 219.14 49.81Q219.14 50.65 218.78 51.3Q218.42 51.95 217.76 52.31Q217.11 52.66 216.22 52.66ZM215.26 51.86H216.24Q216.84 51.86 217.29 51.61Q217.74 51.36 217.98 50.9Q218.23 50.44 218.23 49.81Q218.23 49.18 217.98 48.73Q217.73 48.27 217.29 48.02Q216.84 47.77 216.24 47.77H215.26Z M220.34 52.66V46.97H221.25V52.66Z"/>
</svg>
